<mxfile host="app.diagrams.net" agent="Mozilla/5.0 (Windows NT 10.0; Win64; x64) AppleWebKit/537.36 (KHTML, like Gecko) Chrome/131.0.0.0 Safari/537.36" version="25.0.1">
  <diagram id="Qz4kT_EHmUiYCa6M86Lq" name="lifecycle">
    <mxGraphModel dx="1647" dy="848" grid="1" gridSize="10" guides="1" tooltips="1" connect="1" arrows="1" fold="1" page="1" pageScale="1" pageWidth="827" pageHeight="1169" math="0" shadow="0">
      <root>
        <mxCell id="0" />
        <mxCell id="1" parent="0" />
        <mxCell id="a0QPGXuwm4pvGLJ3d2B2-8" value="" style="endArrow=classic;html=1;rounded=0;" parent="1" edge="1">
          <mxGeometry width="50" height="50" relative="1" as="geometry">
            <mxPoint x="300" y="425" as="sourcePoint" />
            <mxPoint x="600" y="424.5" as="targetPoint" />
          </mxGeometry>
        </mxCell>
        <mxCell id="a0QPGXuwm4pvGLJ3d2B2-10" value="3 months" style="text;html=1;align=center;verticalAlign=middle;whiteSpace=wrap;rounded=0;fillColor=default;" parent="1" vertex="1">
          <mxGeometry x="450" y="410" width="60" height="30" as="geometry" />
        </mxCell>
        <mxCell id="pEdiyFBWld3b6WUdmhq7-1" value="&lt;font style=&quot;font-size: 16px;&quot;&gt;Feature&lt;/font&gt;&lt;div&gt;&lt;font style=&quot;font-size: 16px;&quot;&gt;Definition&lt;/font&gt;&lt;/div&gt;" style="rounded=0;whiteSpace=wrap;html=1;fillColor=#999999;" parent="1" vertex="1">
          <mxGeometry x="304" y="440" width="80" height="60" as="geometry" />
        </mxCell>
        <mxCell id="a0QPGXuwm4pvGLJ3d2B2-2" value="&lt;font style=&quot;font-size: 16px;&quot;&gt;Bug&lt;/font&gt;&lt;div&gt;&lt;font style=&quot;font-size: 16px;&quot;&gt;Fixing&lt;/font&gt;&lt;/div&gt;" style="rounded=0;whiteSpace=wrap;html=1;fillColor=#CCCCCC;" parent="1" vertex="1">
          <mxGeometry x="480" y="440" width="70" height="60" as="geometry" />
        </mxCell>
        <mxCell id="a0QPGXuwm4pvGLJ3d2B2-4" value="&lt;font style=&quot;font-size: 16px;&quot;&gt;1.9&lt;/font&gt;" style="rounded=0;whiteSpace=wrap;html=1;fillColor=#E6E6E6;" parent="1" vertex="1">
          <mxGeometry x="550" y="440" width="50" height="60" as="geometry" />
        </mxCell>
        <mxCell id="a0QPGXuwm4pvGLJ3d2B2-9" value="" style="endArrow=classic;html=1;rounded=0;" parent="1" edge="1">
          <mxGeometry width="50" height="50" relative="1" as="geometry">
            <mxPoint x="600" y="424.5" as="sourcePoint" />
            <mxPoint x="1410" y="425" as="targetPoint" />
          </mxGeometry>
        </mxCell>
        <mxCell id="a0QPGXuwm4pvGLJ3d2B2-1" value="&lt;font style=&quot;font-size: 16px;&quot;&gt;Feature&lt;/font&gt;&lt;div&gt;&lt;font style=&quot;font-size: 16px;&quot;&gt;Work&lt;/font&gt;&lt;/div&gt;" style="rounded=0;whiteSpace=wrap;html=1;fillColor=#B3B3B3;" parent="1" vertex="1">
          <mxGeometry x="384" y="440" width="100" height="60" as="geometry" />
        </mxCell>
        <mxCell id="a0QPGXuwm4pvGLJ3d2B2-13" value="9 months" style="text;html=1;align=center;verticalAlign=middle;whiteSpace=wrap;rounded=0;fillColor=default;" parent="1" vertex="1">
          <mxGeometry x="1080" y="410" width="60" height="30" as="geometry" />
        </mxCell>
        <mxCell id="a0QPGXuwm4pvGLJ3d2B2-3" value="&lt;font style=&quot;font-size: 22px;&quot;&gt;&lt;b&gt;1.9.x Patch Releases&lt;/b&gt;&lt;/font&gt;" style="rounded=0;whiteSpace=wrap;html=1;fillColor=#FFFFFF;" parent="1" vertex="1">
          <mxGeometry x="600" y="440" width="810" height="60" as="geometry" />
        </mxCell>
        <mxCell id="v2wy_uQmqh8NiFtZIND8-3" value="" style="endArrow=classic;html=1;rounded=0;" edge="1" parent="1">
          <mxGeometry width="50" height="50" relative="1" as="geometry">
            <mxPoint x="550" y="545" as="sourcePoint" />
            <mxPoint x="850" y="544.5" as="targetPoint" />
          </mxGeometry>
        </mxCell>
        <mxCell id="v2wy_uQmqh8NiFtZIND8-4" value="3 months" style="text;html=1;align=center;verticalAlign=middle;whiteSpace=wrap;rounded=0;fillColor=default;" vertex="1" parent="1">
          <mxGeometry x="700" y="530" width="60" height="30" as="geometry" />
        </mxCell>
        <mxCell id="v2wy_uQmqh8NiFtZIND8-5" value="&lt;font style=&quot;font-size: 16px;&quot;&gt;Feature&lt;/font&gt;&lt;div&gt;&lt;font style=&quot;font-size: 16px;&quot;&gt;Definition&lt;/font&gt;&lt;/div&gt;" style="rounded=0;whiteSpace=wrap;html=1;fillColor=#999999;" vertex="1" parent="1">
          <mxGeometry x="554" y="560" width="80" height="60" as="geometry" />
        </mxCell>
        <mxCell id="v2wy_uQmqh8NiFtZIND8-6" value="&lt;font style=&quot;font-size: 16px;&quot;&gt;Bug&lt;/font&gt;&lt;div&gt;&lt;font style=&quot;font-size: 16px;&quot;&gt;Fixing&lt;/font&gt;&lt;/div&gt;" style="rounded=0;whiteSpace=wrap;html=1;fillColor=#CCCCCC;" vertex="1" parent="1">
          <mxGeometry x="730" y="560" width="70" height="60" as="geometry" />
        </mxCell>
        <mxCell id="v2wy_uQmqh8NiFtZIND8-7" value="&lt;font style=&quot;font-size: 16px;&quot;&gt;1.10&lt;/font&gt;" style="rounded=0;whiteSpace=wrap;html=1;fillColor=#E6E6E6;" vertex="1" parent="1">
          <mxGeometry x="800" y="560" width="50" height="60" as="geometry" />
        </mxCell>
        <mxCell id="v2wy_uQmqh8NiFtZIND8-8" value="" style="endArrow=classic;html=1;rounded=0;" edge="1" parent="1">
          <mxGeometry width="50" height="50" relative="1" as="geometry">
            <mxPoint x="850" y="544.5" as="sourcePoint" />
            <mxPoint x="1440" y="545" as="targetPoint" />
          </mxGeometry>
        </mxCell>
        <mxCell id="v2wy_uQmqh8NiFtZIND8-9" value="&lt;font style=&quot;font-size: 16px;&quot;&gt;Feature&lt;/font&gt;&lt;div&gt;&lt;font style=&quot;font-size: 16px;&quot;&gt;Work&lt;/font&gt;&lt;/div&gt;" style="rounded=0;whiteSpace=wrap;html=1;fillColor=#B3B3B3;" vertex="1" parent="1">
          <mxGeometry x="634" y="560" width="100" height="60" as="geometry" />
        </mxCell>
        <mxCell id="v2wy_uQmqh8NiFtZIND8-10" value="9 months" style="text;html=1;align=center;verticalAlign=middle;whiteSpace=wrap;rounded=0;fillColor=default;" vertex="1" parent="1">
          <mxGeometry x="1090" y="530" width="60" height="30" as="geometry" />
        </mxCell>
        <mxCell id="v2wy_uQmqh8NiFtZIND8-11" value="&lt;font style=&quot;font-size: 22px;&quot;&gt;&lt;b&gt;1.10.x Patch Releases&lt;/b&gt;&lt;/font&gt;" style="rounded=0;whiteSpace=wrap;html=1;fillColor=#FFFFFF;" vertex="1" parent="1">
          <mxGeometry x="850" y="560" width="590" height="60" as="geometry" />
        </mxCell>
        <mxCell id="v2wy_uQmqh8NiFtZIND8-13" value="" style="endArrow=classic;html=1;rounded=0;" edge="1" parent="1">
          <mxGeometry width="50" height="50" relative="1" as="geometry">
            <mxPoint x="800" y="655" as="sourcePoint" />
            <mxPoint x="1100" y="654.5" as="targetPoint" />
          </mxGeometry>
        </mxCell>
        <mxCell id="v2wy_uQmqh8NiFtZIND8-14" value="3 months" style="text;html=1;align=center;verticalAlign=middle;whiteSpace=wrap;rounded=0;fillColor=default;" vertex="1" parent="1">
          <mxGeometry x="950" y="640" width="60" height="30" as="geometry" />
        </mxCell>
        <mxCell id="v2wy_uQmqh8NiFtZIND8-15" value="&lt;font style=&quot;font-size: 16px;&quot;&gt;Feature&lt;/font&gt;&lt;div&gt;&lt;font style=&quot;font-size: 16px;&quot;&gt;Definition&lt;/font&gt;&lt;/div&gt;" style="rounded=0;whiteSpace=wrap;html=1;fillColor=#999999;" vertex="1" parent="1">
          <mxGeometry x="804" y="670" width="80" height="60" as="geometry" />
        </mxCell>
        <mxCell id="v2wy_uQmqh8NiFtZIND8-16" value="&lt;font style=&quot;font-size: 16px;&quot;&gt;Bug&lt;/font&gt;&lt;div&gt;&lt;font style=&quot;font-size: 16px;&quot;&gt;Fixing&lt;/font&gt;&lt;/div&gt;" style="rounded=0;whiteSpace=wrap;html=1;fillColor=#CCCCCC;" vertex="1" parent="1">
          <mxGeometry x="980" y="670" width="70" height="60" as="geometry" />
        </mxCell>
        <mxCell id="v2wy_uQmqh8NiFtZIND8-17" value="&lt;font style=&quot;font-size: 16px;&quot;&gt;1.11&lt;/font&gt;" style="rounded=0;whiteSpace=wrap;html=1;fillColor=#E6E6E6;" vertex="1" parent="1">
          <mxGeometry x="1050" y="670" width="50" height="60" as="geometry" />
        </mxCell>
        <mxCell id="v2wy_uQmqh8NiFtZIND8-19" value="&lt;font style=&quot;font-size: 16px;&quot;&gt;Feature&lt;/font&gt;&lt;div&gt;&lt;font style=&quot;font-size: 16px;&quot;&gt;Work&lt;/font&gt;&lt;/div&gt;" style="rounded=0;whiteSpace=wrap;html=1;fillColor=#B3B3B3;" vertex="1" parent="1">
          <mxGeometry x="884" y="670" width="100" height="60" as="geometry" />
        </mxCell>
        <mxCell id="v2wy_uQmqh8NiFtZIND8-23" value="" style="endArrow=classic;html=1;rounded=0;" edge="1" parent="1">
          <mxGeometry width="50" height="50" relative="1" as="geometry">
            <mxPoint x="1060" y="765" as="sourcePoint" />
            <mxPoint x="1360" y="764.5" as="targetPoint" />
          </mxGeometry>
        </mxCell>
        <mxCell id="v2wy_uQmqh8NiFtZIND8-24" value="3 months" style="text;html=1;align=center;verticalAlign=middle;whiteSpace=wrap;rounded=0;fillColor=default;" vertex="1" parent="1">
          <mxGeometry x="1190" y="750" width="60" height="30" as="geometry" />
        </mxCell>
        <mxCell id="v2wy_uQmqh8NiFtZIND8-25" value="&lt;font style=&quot;font-size: 16px;&quot;&gt;Feature&lt;/font&gt;&lt;div&gt;&lt;font style=&quot;font-size: 16px;&quot;&gt;Definition&lt;/font&gt;&lt;/div&gt;" style="rounded=0;whiteSpace=wrap;html=1;fillColor=#999999;" vertex="1" parent="1">
          <mxGeometry x="1064" y="780" width="80" height="60" as="geometry" />
        </mxCell>
        <mxCell id="v2wy_uQmqh8NiFtZIND8-26" value="&lt;font style=&quot;font-size: 16px;&quot;&gt;Bug&lt;/font&gt;&lt;div&gt;&lt;font style=&quot;font-size: 16px;&quot;&gt;Fixing&lt;/font&gt;&lt;/div&gt;" style="rounded=0;whiteSpace=wrap;html=1;fillColor=#CCCCCC;" vertex="1" parent="1">
          <mxGeometry x="1240" y="780" width="70" height="60" as="geometry" />
        </mxCell>
        <mxCell id="v2wy_uQmqh8NiFtZIND8-27" value="&lt;font style=&quot;font-size: 16px;&quot;&gt;1.12&lt;/font&gt;" style="rounded=0;whiteSpace=wrap;html=1;fillColor=#E6E6E6;" vertex="1" parent="1">
          <mxGeometry x="1310" y="780" width="50" height="60" as="geometry" />
        </mxCell>
        <mxCell id="v2wy_uQmqh8NiFtZIND8-29" value="&lt;font style=&quot;font-size: 16px;&quot;&gt;Feature&lt;/font&gt;&lt;div&gt;&lt;font style=&quot;font-size: 16px;&quot;&gt;Work&lt;/font&gt;&lt;/div&gt;" style="rounded=0;whiteSpace=wrap;html=1;fillColor=#B3B3B3;" vertex="1" parent="1">
          <mxGeometry x="1144" y="780" width="100" height="60" as="geometry" />
        </mxCell>
        <mxCell id="v2wy_uQmqh8NiFtZIND8-33" value="" style="endArrow=classic;html=1;rounded=0;" edge="1" parent="1">
          <mxGeometry width="50" height="50" relative="1" as="geometry">
            <mxPoint x="1110" y="654.5" as="sourcePoint" />
            <mxPoint x="1480" y="655" as="targetPoint" />
          </mxGeometry>
        </mxCell>
        <mxCell id="v2wy_uQmqh8NiFtZIND8-34" value="9 months" style="text;html=1;align=center;verticalAlign=middle;whiteSpace=wrap;rounded=0;fillColor=default;" vertex="1" parent="1">
          <mxGeometry x="1241" y="640" width="60" height="30" as="geometry" />
        </mxCell>
        <mxCell id="v2wy_uQmqh8NiFtZIND8-21" value="&lt;font style=&quot;font-size: 22px;&quot;&gt;&lt;b&gt;1.11.x Patch Releases&lt;/b&gt;&lt;/font&gt;" style="rounded=0;whiteSpace=wrap;html=1;fillColor=#FFFFFF;" vertex="1" parent="1">
          <mxGeometry x="1100" y="670" width="380" height="60" as="geometry" />
        </mxCell>
      </root>
    </mxGraphModel>
  </diagram>
</mxfile>
